<svg width="567" height="567" viewBox="0 0 567 567" fill="none" xmlns="http://www.w3.org/2000/svg">
<mask id="path-1-outside-1_349_952" maskUnits="userSpaceOnUse" x="6.5351" y="5.66137" width="555.741" height="556.355" fill="black">
<rect fill="white" x="6.5351" y="5.66137" width="555.741" height="556.355"/>
<path d="M79.5856 308.873C79.1951 302.177 78.934 295.457 79.1759 288.752C79.1876 285.39 79.4273 282.044 79.6131 278.695C79.6839 277.018 79.875 275.351 80.0312 273.676L80.4934 268.663C82.006 255.317 84.5829 242.076 88.153 229.071C95.3601 203.1 106.758 178.028 122.665 155.733C130.693 144.666 139.753 134.244 149.939 124.955C151.219 123.798 152.435 122.578 153.782 121.493L157.764 118.185C160.375 115.927 163.196 113.935 165.936 111.834C166.637 111.324 167.31 110.792 168.027 110.298L170.179 108.847L174.486 105.955C175.895 104.954 177.417 104.126 178.887 103.21L183.336 100.543C195.334 93.6497 208.146 88.1775 221.344 84.0849L226.327 82.6407C227.155 82.4042 227.987 82.1456 228.821 81.928L231.336 81.3036L236.376 80.083C238.059 79.7173 239.759 79.3987 241.453 79.0613C244.833 78.3359 248.254 77.8501 251.662 77.3267C253.363 77.0397 255.081 76.8949 256.802 76.6962C258.52 76.5197 260.224 76.3054 261.949 76.1478L267.111 75.7952L269.693 75.6347L272.276 75.5691L277.439 75.46C279.159 75.4415 280.877 75.5086 282.601 75.5312C289.478 75.6284 296.345 76.1526 303.154 76.9623C316.759 78.7337 330.182 81.6494 343.138 85.9571C356.066 90.2747 368.656 95.568 380.532 102.149C386.52 105.343 392.268 108.938 397.95 112.62C403.555 116.414 409.08 120.341 414.331 124.608C417.011 126.669 419.545 128.919 422.119 131.102C423.418 132.184 424.618 133.375 425.881 134.502C427.121 135.657 428.411 136.743 429.596 137.949C432.002 140.318 434.448 142.652 436.73 145.149C437.873 146.392 439.073 147.582 440.192 148.844L443.552 152.638C444.689 153.893 445.742 155.21 446.814 156.519L450.021 160.452C452.128 163.148 454.094 165.893 456.003 168.69C459.793 174.293 463.367 180.035 466.694 185.917C470.02 191.8 473.083 197.837 475.901 203.992C478.744 210.128 481.383 216.377 483.666 222.761C485.968 229.139 488.06 235.611 489.787 242.19C490.72 245.465 491.425 248.788 492.204 252.108C492.572 253.769 492.862 255.447 493.202 257.119C493.524 258.796 493.873 260.464 494.103 262.153C498.611 289.062 497.457 317.229 489.994 343.83C486.327 357.134 481.092 370.043 474.518 382.244C467.948 394.454 459.921 405.892 450.828 416.368C441.75 426.859 431.468 436.267 420.517 444.701C415.066 448.957 409.324 452.806 403.534 456.577C397.659 460.198 391.739 463.749 385.605 466.899C373.411 473.352 360.676 478.681 347.615 483.106C341.078 485.316 334.438 487.202 327.63 488.818C325.916 489.216 324.216 489.597 322.346 489.944C320.519 490.264 318.803 490.536 317.064 490.772C313.601 491.262 310.163 491.637 306.717 491.93C299.827 492.526 292.944 492.834 286.066 492.885C282.629 492.931 279.184 492.864 275.745 492.784C272.311 492.628 268.865 492.497 265.433 492.224C251.7 491.302 238.029 489.161 224.611 485.926C217.929 484.204 211.289 482.297 204.781 479.952L199.914 478.179L195.119 476.22C191.898 474.973 188.783 473.456 185.65 472.008C173.158 466.087 161.416 458.644 150.678 450.044C129.203 432.781 112.123 410.699 100.315 386.394C94.4033 374.233 89.7517 361.526 86.2632 348.54C82.8723 335.531 80.5624 322.249 79.6328 308.856L79.5856 308.873ZM81.083 308.763C81.6023 315.403 82.4595 322.01 83.6575 328.562C84.8743 335.107 86.4792 341.579 88.3389 347.963C92.2033 360.691 97.3554 373.011 103.859 384.531C104.258 385.249 104.642 385.984 105.051 386.699L106.349 388.809L108.956 393.025C109.792 394.449 110.757 395.785 111.707 397.138L114.542 401.189C115.453 402.555 116.512 403.827 117.527 405.125L120.584 408.993C121.102 409.628 121.58 410.298 122.133 410.909L123.772 412.752L127.048 416.427C135.906 426.107 145.865 434.692 156.582 442.049C157.886 443.024 159.265 443.877 160.637 444.743L164.748 447.353C165.422 447.795 166.12 448.218 166.837 448.603L168.961 449.8L173.195 452.187C176.091 453.654 178.984 455.111 181.882 456.524L186.316 458.513C187.787 459.175 189.255 459.859 190.774 460.419C193.795 461.578 196.758 462.873 199.831 463.875L204.405 465.476L209.043 466.896C215.203 468.854 221.509 470.347 227.82 471.765C253.144 477.09 279.428 478.404 305.196 475.968C308.411 475.65 311.619 475.281 314.769 474.837C316.344 474.616 317.931 474.368 319.395 474.101C320.808 473.84 322.381 473.491 323.916 473.125C330.119 471.656 336.339 469.812 342.493 467.81C348.64 465.789 354.721 463.516 360.703 461.023C363.706 459.794 366.663 458.465 369.626 457.154C371.097 456.481 372.554 455.771 374.021 455.088L376.22 454.045L378.386 452.938C384.209 450.078 389.814 446.838 395.373 443.529C400.846 440.091 406.282 436.582 411.435 432.684C421.802 425.005 431.566 416.477 440.186 406.919C474.915 368.917 492.124 315.364 485.925 263.273C485.778 261.64 485.53 260.021 485.292 258.399C485.044 256.78 484.847 255.155 484.568 253.536C483.971 250.313 483.45 247.063 482.701 243.86C482.042 240.637 481.224 237.449 480.406 234.26C479.998 232.665 479.501 231.091 479.045 229.513C478.598 227.932 478.12 226.351 477.595 224.787C475.61 218.5 473.297 212.306 470.737 206.22C468.138 200.147 465.288 194.173 462.177 188.332C459.076 182.488 455.718 176.787 452.055 171.276C450.22 168.539 448.337 165.818 446.348 163.218L443.234 159.37C442.191 158.082 441.167 156.787 440.061 155.563C431.425 145.551 421.809 136.37 411.289 128.361C406.097 124.265 400.561 120.638 395.007 117.08L390.745 114.555L388.611 113.298L386.441 112.118L382.099 109.758C380.63 109.011 379.14 108.292 377.668 107.567C365.823 101.77 353.423 97.204 340.747 93.8474C339.178 93.3893 337.572 93.0393 335.976 92.6543C334.377 92.2914 332.793 91.8809 331.191 91.5402L326.37 90.5975L323.96 90.1262L321.538 89.7436L316.695 88.9784L311.828 88.3905C308.599 87.9404 305.333 87.7786 302.087 87.4933C289.089 86.6113 276.052 87.014 263.187 88.5431C237.489 91.7592 212.419 99.6184 189.805 112.085C167.201 124.548 146.94 141.383 130.224 161.513C121.865 171.574 114.434 182.475 107.984 193.965C101.549 205.472 95.9918 217.551 91.7674 230.139C87.492 242.702 84.3802 255.685 82.492 268.865C81.6319 275.468 80.9841 282.103 80.7668 288.757C80.4545 295.413 80.718 302.079 81.0698 308.725L81.083 308.763Z"/>
</mask>
<path d="M79.5856 308.873C79.1951 302.177 78.934 295.457 79.1759 288.752C79.1876 285.39 79.4273 282.044 79.6131 278.695C79.6839 277.018 79.875 275.351 80.0312 273.676L80.4934 268.663C82.006 255.317 84.5829 242.076 88.153 229.071C95.3601 203.1 106.758 178.028 122.665 155.733C130.693 144.666 139.753 134.244 149.939 124.955C151.219 123.798 152.435 122.578 153.782 121.493L157.764 118.185C160.375 115.927 163.196 113.935 165.936 111.834C166.637 111.324 167.31 110.792 168.027 110.298L170.179 108.847L174.486 105.955C175.895 104.954 177.417 104.126 178.887 103.21L183.336 100.543C195.334 93.6497 208.146 88.1775 221.344 84.0849L226.327 82.6407C227.155 82.4042 227.987 82.1456 228.821 81.928L231.336 81.3036L236.376 80.083C238.059 79.7173 239.759 79.3987 241.453 79.0613C244.833 78.3359 248.254 77.8501 251.662 77.3267C253.363 77.0397 255.081 76.8949 256.802 76.6962C258.52 76.5197 260.224 76.3054 261.949 76.1478L267.111 75.7952L269.693 75.6347L272.276 75.5691L277.439 75.46C279.159 75.4415 280.877 75.5086 282.601 75.5312C289.478 75.6284 296.345 76.1526 303.154 76.9623C316.759 78.7337 330.182 81.6494 343.138 85.9571C356.066 90.2747 368.656 95.568 380.532 102.149C386.52 105.343 392.268 108.938 397.95 112.62C403.555 116.414 409.08 120.341 414.331 124.608C417.011 126.669 419.545 128.919 422.119 131.102C423.418 132.184 424.618 133.375 425.881 134.502C427.121 135.657 428.411 136.743 429.596 137.949C432.002 140.318 434.448 142.652 436.73 145.149C437.873 146.392 439.073 147.582 440.192 148.844L443.552 152.638C444.689 153.893 445.742 155.21 446.814 156.519L450.021 160.452C452.128 163.148 454.094 165.893 456.003 168.69C459.793 174.293 463.367 180.035 466.694 185.917C470.02 191.8 473.083 197.837 475.901 203.992C478.744 210.128 481.383 216.377 483.666 222.761C485.968 229.139 488.06 235.611 489.787 242.19C490.72 245.465 491.425 248.788 492.204 252.108C492.572 253.769 492.862 255.447 493.202 257.119C493.524 258.796 493.873 260.464 494.103 262.153C498.611 289.062 497.457 317.229 489.994 343.83C486.327 357.134 481.092 370.043 474.518 382.244C467.948 394.454 459.921 405.892 450.828 416.368C441.75 426.859 431.468 436.267 420.517 444.701C415.066 448.957 409.324 452.806 403.534 456.577C397.659 460.198 391.739 463.749 385.605 466.899C373.411 473.352 360.676 478.681 347.615 483.106C341.078 485.316 334.438 487.202 327.63 488.818C325.916 489.216 324.216 489.597 322.346 489.944C320.519 490.264 318.803 490.536 317.064 490.772C313.601 491.262 310.163 491.637 306.717 491.93C299.827 492.526 292.944 492.834 286.066 492.885C282.629 492.931 279.184 492.864 275.745 492.784C272.311 492.628 268.865 492.497 265.433 492.224C251.7 491.302 238.029 489.161 224.611 485.926C217.929 484.204 211.289 482.297 204.781 479.952L199.914 478.179L195.119 476.22C191.898 474.973 188.783 473.456 185.65 472.008C173.158 466.087 161.416 458.644 150.678 450.044C129.203 432.781 112.123 410.699 100.315 386.394C94.4033 374.233 89.7517 361.526 86.2632 348.54C82.8723 335.531 80.5624 322.249 79.6328 308.856L79.5856 308.873ZM81.083 308.763C81.6023 315.403 82.4595 322.01 83.6575 328.562C84.8743 335.107 86.4792 341.579 88.3389 347.963C92.2033 360.691 97.3554 373.011 103.859 384.531C104.258 385.249 104.642 385.984 105.051 386.699L106.349 388.809L108.956 393.025C109.792 394.449 110.757 395.785 111.707 397.138L114.542 401.189C115.453 402.555 116.512 403.827 117.527 405.125L120.584 408.993C121.102 409.628 121.58 410.298 122.133 410.909L123.772 412.752L127.048 416.427C135.906 426.107 145.865 434.692 156.582 442.049C157.886 443.024 159.265 443.877 160.637 444.743L164.748 447.353C165.422 447.795 166.12 448.218 166.837 448.603L168.961 449.8L173.195 452.187C176.091 453.654 178.984 455.111 181.882 456.524L186.316 458.513C187.787 459.175 189.255 459.859 190.774 460.419C193.795 461.578 196.758 462.873 199.831 463.875L204.405 465.476L209.043 466.896C215.203 468.854 221.509 470.347 227.82 471.765C253.144 477.09 279.428 478.404 305.196 475.968C308.411 475.65 311.619 475.281 314.769 474.837C316.344 474.616 317.931 474.368 319.395 474.101C320.808 473.84 322.381 473.491 323.916 473.125C330.119 471.656 336.339 469.812 342.493 467.81C348.64 465.789 354.721 463.516 360.703 461.023C363.706 459.794 366.663 458.465 369.626 457.154C371.097 456.481 372.554 455.771 374.021 455.088L376.22 454.045L378.386 452.938C384.209 450.078 389.814 446.838 395.373 443.529C400.846 440.091 406.282 436.582 411.435 432.684C421.802 425.005 431.566 416.477 440.186 406.919C474.915 368.917 492.124 315.364 485.925 263.273C485.778 261.64 485.53 260.021 485.292 258.399C485.044 256.78 484.847 255.155 484.568 253.536C483.971 250.313 483.45 247.063 482.701 243.86C482.042 240.637 481.224 237.449 480.406 234.26C479.998 232.665 479.501 231.091 479.045 229.513C478.598 227.932 478.12 226.351 477.595 224.787C475.61 218.5 473.297 212.306 470.737 206.22C468.138 200.147 465.288 194.173 462.177 188.332C459.076 182.488 455.718 176.787 452.055 171.276C450.22 168.539 448.337 165.818 446.348 163.218L443.234 159.37C442.191 158.082 441.167 156.787 440.061 155.563C431.425 145.551 421.809 136.37 411.289 128.361C406.097 124.265 400.561 120.638 395.007 117.08L390.745 114.555L388.611 113.298L386.441 112.118L382.099 109.758C380.63 109.011 379.14 108.292 377.668 107.567C365.823 101.77 353.423 97.204 340.747 93.8474C339.178 93.3893 337.572 93.0393 335.976 92.6543C334.377 92.2914 332.793 91.8809 331.191 91.5402L326.37 90.5975L323.96 90.1262L321.538 89.7436L316.695 88.9784L311.828 88.3905C308.599 87.9404 305.333 87.7786 302.087 87.4933C289.089 86.6113 276.052 87.014 263.187 88.5431C237.489 91.7592 212.419 99.6184 189.805 112.085C167.201 124.548 146.94 141.383 130.224 161.513C121.865 171.574 114.434 182.475 107.984 193.965C101.549 205.472 95.9918 217.551 91.7674 230.139C87.492 242.702 84.3802 255.685 82.492 268.865C81.6319 275.468 80.9841 282.103 80.7668 288.757C80.4545 295.413 80.718 302.079 81.0698 308.725L81.083 308.763Z" fill="#11CC41"/>
<path d="M79.5856 308.873C79.1951 302.177 78.934 295.457 79.1759 288.752C79.1876 285.39 79.4273 282.044 79.6131 278.695C79.6839 277.018 79.875 275.351 80.0312 273.676L80.4934 268.663C82.006 255.317 84.5829 242.076 88.153 229.071C95.3601 203.1 106.758 178.028 122.665 155.733C130.693 144.666 139.753 134.244 149.939 124.955C151.219 123.798 152.435 122.578 153.782 121.493L157.764 118.185C160.375 115.927 163.196 113.935 165.936 111.834C166.637 111.324 167.31 110.792 168.027 110.298L170.179 108.847L174.486 105.955C175.895 104.954 177.417 104.126 178.887 103.21L183.336 100.543C195.334 93.6497 208.146 88.1775 221.344 84.0849L226.327 82.6407C227.155 82.4042 227.987 82.1456 228.821 81.928L231.336 81.3036L236.376 80.083C238.059 79.7173 239.759 79.3987 241.453 79.0613C244.833 78.3359 248.254 77.8501 251.662 77.3267C253.363 77.0397 255.081 76.8949 256.802 76.6962C258.52 76.5197 260.224 76.3054 261.949 76.1478L267.111 75.7952L269.693 75.6347L272.276 75.5691L277.439 75.46C279.159 75.4415 280.877 75.5086 282.601 75.5312C289.478 75.6284 296.345 76.1526 303.154 76.9623C316.759 78.7337 330.182 81.6494 343.138 85.9571C356.066 90.2747 368.656 95.568 380.532 102.149C386.52 105.343 392.268 108.938 397.95 112.62C403.555 116.414 409.08 120.341 414.331 124.608C417.011 126.669 419.545 128.919 422.119 131.102C423.418 132.184 424.618 133.375 425.881 134.502C427.121 135.657 428.411 136.743 429.596 137.949C432.002 140.318 434.448 142.652 436.73 145.149C437.873 146.392 439.073 147.582 440.192 148.844L443.552 152.638C444.689 153.893 445.742 155.21 446.814 156.519L450.021 160.452C452.128 163.148 454.094 165.893 456.003 168.69C459.793 174.293 463.367 180.035 466.694 185.917C470.02 191.8 473.083 197.837 475.901 203.992C478.744 210.128 481.383 216.377 483.666 222.761C485.968 229.139 488.06 235.611 489.787 242.19C490.72 245.465 491.425 248.788 492.204 252.108C492.572 253.769 492.862 255.447 493.202 257.119C493.524 258.796 493.873 260.464 494.103 262.153C498.611 289.062 497.457 317.229 489.994 343.83C486.327 357.134 481.092 370.043 474.518 382.244C467.948 394.454 459.921 405.892 450.828 416.368C441.75 426.859 431.468 436.267 420.517 444.701C415.066 448.957 409.324 452.806 403.534 456.577C397.659 460.198 391.739 463.749 385.605 466.899C373.411 473.352 360.676 478.681 347.615 483.106C341.078 485.316 334.438 487.202 327.63 488.818C325.916 489.216 324.216 489.597 322.346 489.944C320.519 490.264 318.803 490.536 317.064 490.772C313.601 491.262 310.163 491.637 306.717 491.93C299.827 492.526 292.944 492.834 286.066 492.885C282.629 492.931 279.184 492.864 275.745 492.784C272.311 492.628 268.865 492.497 265.433 492.224C251.7 491.302 238.029 489.161 224.611 485.926C217.929 484.204 211.289 482.297 204.781 479.952L199.914 478.179L195.119 476.22C191.898 474.973 188.783 473.456 185.65 472.008C173.158 466.087 161.416 458.644 150.678 450.044C129.203 432.781 112.123 410.699 100.315 386.394C94.4033 374.233 89.7517 361.526 86.2632 348.54C82.8723 335.531 80.5624 322.249 79.6328 308.856L79.5856 308.873ZM81.083 308.763C81.6023 315.403 82.4595 322.01 83.6575 328.562C84.8743 335.107 86.4792 341.579 88.3389 347.963C92.2033 360.691 97.3554 373.011 103.859 384.531C104.258 385.249 104.642 385.984 105.051 386.699L106.349 388.809L108.956 393.025C109.792 394.449 110.757 395.785 111.707 397.138L114.542 401.189C115.453 402.555 116.512 403.827 117.527 405.125L120.584 408.993C121.102 409.628 121.58 410.298 122.133 410.909L123.772 412.752L127.048 416.427C135.906 426.107 145.865 434.692 156.582 442.049C157.886 443.024 159.265 443.877 160.637 444.743L164.748 447.353C165.422 447.795 166.12 448.218 166.837 448.603L168.961 449.8L173.195 452.187C176.091 453.654 178.984 455.111 181.882 456.524L186.316 458.513C187.787 459.175 189.255 459.859 190.774 460.419C193.795 461.578 196.758 462.873 199.831 463.875L204.405 465.476L209.043 466.896C215.203 468.854 221.509 470.347 227.82 471.765C253.144 477.09 279.428 478.404 305.196 475.968C308.411 475.65 311.619 475.281 314.769 474.837C316.344 474.616 317.931 474.368 319.395 474.101C320.808 473.84 322.381 473.491 323.916 473.125C330.119 471.656 336.339 469.812 342.493 467.81C348.64 465.789 354.721 463.516 360.703 461.023C363.706 459.794 366.663 458.465 369.626 457.154C371.097 456.481 372.554 455.771 374.021 455.088L376.22 454.045L378.386 452.938C384.209 450.078 389.814 446.838 395.373 443.529C400.846 440.091 406.282 436.582 411.435 432.684C421.802 425.005 431.566 416.477 440.186 406.919C474.915 368.917 492.124 315.364 485.925 263.273C485.778 261.64 485.53 260.021 485.292 258.399C485.044 256.78 484.847 255.155 484.568 253.536C483.971 250.313 483.45 247.063 482.701 243.86C482.042 240.637 481.224 237.449 480.406 234.26C479.998 232.665 479.501 231.091 479.045 229.513C478.598 227.932 478.12 226.351 477.595 224.787C475.61 218.5 473.297 212.306 470.737 206.22C468.138 200.147 465.288 194.173 462.177 188.332C459.076 182.488 455.718 176.787 452.055 171.276C450.22 168.539 448.337 165.818 446.348 163.218L443.234 159.37C442.191 158.082 441.167 156.787 440.061 155.563C431.425 145.551 421.809 136.37 411.289 128.361C406.097 124.265 400.561 120.638 395.007 117.08L390.745 114.555L388.611 113.298L386.441 112.118L382.099 109.758C380.63 109.011 379.14 108.292 377.668 107.567C365.823 101.77 353.423 97.204 340.747 93.8474C339.178 93.3893 337.572 93.0393 335.976 92.6543C334.377 92.2914 332.793 91.8809 331.191 91.5402L326.37 90.5975L323.96 90.1262L321.538 89.7436L316.695 88.9784L311.828 88.3905C308.599 87.9404 305.333 87.7786 302.087 87.4933C289.089 86.6113 276.052 87.014 263.187 88.5431C237.489 91.7592 212.419 99.6184 189.805 112.085C167.201 124.548 146.94 141.383 130.224 161.513C121.865 171.574 114.434 182.475 107.984 193.965C101.549 205.472 95.9918 217.551 91.7674 230.139C87.492 242.702 84.3802 255.685 82.492 268.865C81.6319 275.468 80.9841 282.103 80.7668 288.757C80.4545 295.413 80.718 302.079 81.0698 308.725L81.083 308.763Z" stroke="#11CC41" stroke-width="18" mask="url(#path-1-outside-1_349_952)"/>
<path d="M183.143 230.416L183.84 230.196L183.927 230.17L184.015 230.146C185.412 229.781 187.037 229.338 188.713 228.996L189.434 228.856L189.514 228.841L189.594 228.83C190.848 228.646 192.198 228.439 193.571 228.261L194.948 228.093L194.971 228.091L194.994 228.088C202.155 227.359 209.684 227.609 216.961 229.525L217.664 229.716L217.67 229.717C225.024 231.78 231.964 235.233 237.965 239.809L237.969 239.813C243.929 244.368 249.147 250.094 252.624 256.897L252.622 256.898C253.924 259.433 252.878 262.486 250.419 263.752L250.42 263.755C250.404 263.763 250.386 263.77 250.369 263.779C250.357 263.784 250.346 263.791 250.335 263.797L250.333 263.795C248.667 264.62 246.918 264.385 245.672 263.726L245.628 263.704L245.585 263.679C239.774 260.443 234.399 257.684 228.959 255.511L228.951 255.507C223.519 253.324 218.038 251.68 212.493 250.489L212.485 250.488C206.793 249.255 201.282 248.248 195.697 248.037C195.043 248.021 194.374 248.025 193.627 248.03C192.945 248.035 192.192 248.039 191.422 248.026C190.085 248.088 188.541 248.177 186.988 248.189C185.644 248.274 184.057 248.397 182.525 248.465C181.095 248.603 179.77 248.784 178.129 248.973C172.609 249.761 167.286 251.865 163.023 255.225L163.006 255.238L162.989 255.251C162.032 255.99 161.16 256.872 159.997 258.03C159.136 258.953 158.368 259.978 157.375 261.261C156.503 262.473 155.889 263.471 154.902 264.913C154.2 266.052 153.356 267.486 152.475 268.788C151.734 270.016 150.906 271.37 149.969 272.683C149.194 273.922 148.375 275.166 147.496 276.395C146.735 277.66 145.94 278.9 145.183 280.078C144.507 281.26 143.763 282.581 142.951 283.889C142.261 285.242 141.508 286.581 140.818 287.818C140.144 289.209 139.43 290.583 138.727 291.918C138.083 293.314 137.395 294.737 136.648 296.179C135.992 297.662 135.265 299.189 134.405 300.763L134.392 300.791L134.349 300.874C132.993 303.409 129.89 304.266 127.452 302.975C126.008 302.212 125.056 300.828 124.807 299.299L124.809 299.299C124.47 297.456 124.252 295.625 124.107 293.815L124.097 293.696L124.094 293.579C124.043 291.69 124.117 289.824 124.19 288.106L124.196 287.955L124.213 287.805C124.412 285.991 124.676 284.197 124.966 282.438L124.99 282.293L125.024 282.149C125.431 280.406 125.886 278.647 126.382 276.908L126.413 276.801L126.448 276.695C127.045 274.934 127.74 273.192 128.341 271.633L128.413 271.445L128.503 271.265C129.227 269.793 130.042 268.07 130.947 266.421L130.992 266.34L131.039 266.261C131.948 264.755 132.947 263.135 134.081 261.562L134.152 261.464L134.229 261.369C135.34 259.991 136.582 258.492 137.989 257.08L138.054 257.015L138.122 256.953C139.433 255.74 140.858 254.458 142.412 253.271L142.493 253.21L142.575 253.152C143.872 252.251 145.454 251.09 147 250.1L147.082 250.047L147.165 249.999C148.785 249.057 149.694 248.43 151.504 247.35L151.553 247.32L151.603 247.293C152.295 246.903 152.899 246.539 153.672 246.089C154.114 245.815 155.041 245.202 155.867 244.746C161.502 241.331 167.248 237.791 173.467 234.515L173.552 234.47L173.64 234.429C174.931 233.819 176.801 232.848 178.52 232.133L178.581 232.108L178.641 232.085C179.942 231.588 181.522 230.949 183.143 230.416ZM133.69 297.852C133.685 297.821 133.677 297.791 133.672 297.76L132.762 298.002L133.69 297.852Z" fill="#11CC41" stroke="#11CC41" stroke-width="9"/>
<path d="M328.531 179.29L328.532 179.288C329.912 178.832 331.524 178.281 333.209 177.85L333.936 177.672L333.986 177.661C335.591 177.31 337.445 176.874 339.299 176.574L339.309 176.573C344.539 175.739 349.647 175.198 354.647 174.71L359.613 174.231L359.691 174.224L359.77 174.219C360.522 174.172 361.275 174.101 362.06 174.015L364.541 173.729L364.653 173.715L364.767 173.708C366.028 173.626 367.078 173.504 368.381 173.374L369.786 173.243L369.887 173.235L369.989 173.23C371.596 173.165 373.493 173.058 375.329 173.041L375.432 173.04L375.536 173.044C377.033 173.1 378.725 173.165 380.449 173.358L381.189 173.449L381.269 173.459L381.349 173.472C382.217 173.62 383.139 173.787 384.081 173.991L384.74 174.128C385.438 174.277 386.246 174.463 387.056 174.716L387.09 174.727L387.124 174.739C388.615 175.231 390.187 175.78 391.747 176.431L392.414 176.716L392.465 176.739L392.515 176.762C394.15 177.526 395.798 178.336 397.433 179.224L397.561 179.295L397.684 179.372C398.963 180.178 400.745 181.218 402.309 182.345L402.356 182.379L402.401 182.413C403.633 183.35 404.906 184.337 406.154 185.392L406.686 185.849L406.778 185.928L406.867 186.013C407.935 187.046 409.108 188.173 410.236 189.376L410.716 189.897L410.798 189.987L410.874 190.08C411.811 191.23 412.849 192.498 413.823 193.841L414.235 194.421L414.295 194.507L414.351 194.596C415.335 196.155 416.281 197.787 417.123 199.518L417.231 199.754C418.287 202.21 417.269 205.141 414.793 206.358L414.761 206.374L414.729 206.388C413.469 206.983 411.848 207.111 410.338 206.383L410.337 206.382L410.304 206.367L410.304 206.366C408.661 205.612 407.142 204.816 405.713 204.01C404.284 203.312 402.867 202.59 401.485 201.832C400.175 201.201 398.742 200.522 397.368 199.809C396.271 199.301 394.634 198.598 393.29 197.936C391.949 197.379 390.589 196.814 389.239 196.233C388.622 195.98 387.992 195.747 387.26 195.475C386.604 195.231 385.872 194.956 385.132 194.646C383.948 194.235 382.363 193.726 380.905 193.137C379.65 192.694 378.096 192.17 376.579 191.515C375.29 191.037 373.784 190.496 372.289 189.855C370.938 189.352 369.735 188.972 368.143 188.416C366.86 188.035 365.505 187.716 364.053 187.402C362.783 187.193 361.441 187.072 359.974 186.975C354.568 186.845 349.066 188.35 344.188 191.03L344.151 191.05L344.114 191.069C343.545 191.367 342.966 191.709 342.305 192.107C341.678 192.485 340.933 192.941 340.19 193.359L340.151 193.382L340.111 193.404C339.999 193.464 339.842 193.561 339.556 193.759C339.335 193.912 338.883 194.234 338.478 194.495C338.056 194.766 337.16 195.363 336.564 195.74L336.566 195.742C336.029 196.089 335.499 196.468 334.86 196.924C334.284 197.336 333.614 197.812 332.904 198.268C331.749 199.07 330.97 199.731 329.574 200.768C325.234 204.279 321.421 208.382 317.586 212.767L317.584 212.766C313.853 217.037 310.442 221.625 307.403 226.621L307.395 226.634C304.34 231.621 301.688 237.058 298.97 243.132L298.968 243.131C297.799 245.757 294.78 246.818 292.277 245.737L292.262 245.731L292.247 245.724C290.557 244.979 289.559 243.468 289.285 241.959L289.109 240.989L289.132 240.901C288.061 233.68 288.838 226.325 290.796 219.415L290.797 219.409C292.866 212.137 296.367 205.218 301.027 199.174L301.031 199.168C305.787 193.02 311.861 188.129 318.223 184.313L318.297 184.269L318.371 184.228C319.576 183.566 321.489 182.399 323.178 181.582L323.224 181.56C324.004 181.193 324.865 180.788 325.75 180.409C326.284 180.18 327.419 179.644 328.531 179.29Z" fill="#11CC41" stroke="#11CC41" stroke-width="9"/>
<path d="M384.57 254.905C385.889 252.276 389.055 251.239 391.658 252.503L391.659 252.501C391.664 252.504 391.669 252.508 391.674 252.51C391.69 252.518 391.706 252.524 391.721 252.531L391.72 252.534C393.61 253.475 394.558 255.309 394.656 257.003L394.659 257.046L394.66 257.091C394.885 262.974 394.507 268.782 393.81 274.472L393.81 274.48C393.099 280.211 391.991 285.896 390.521 291.504L390.52 291.503C387.592 302.709 383.193 313.723 377.084 323.971L377.079 323.977L377.075 323.985C370.868 334.311 362.628 343.446 353.255 351.03L353.253 351.03C348.602 354.801 343.571 358.335 338.075 361.162L338.076 361.162C332.597 364.003 326.842 366.084 321.155 367.675L321.119 367.685L321.082 367.694L316.968 368.771L316.866 368.799L316.762 368.821C315.407 369.108 314.073 369.408 312.724 369.723L312.659 369.738C311.291 370.036 309.492 370.326 308.438 370.531C306.849 370.863 305.827 371.027 304.508 371.333L304.326 371.375L304.139 371.402C301.427 371.796 298.739 372.225 296.066 372.69L295.909 372.716L295.751 372.732C294.428 372.867 293.102 373.024 291.772 373.202L291.717 373.21L291.663 373.215C291.132 373.273 290.606 373.365 289.851 373.488C289.173 373.599 288.326 373.731 287.424 373.794L287.424 373.796C286.092 373.904 285.068 374.058 283.473 374.225C282.354 374.368 280.68 374.635 279.108 374.726C277.726 374.841 276.388 374.954 275.053 375.099L275.043 375.101L275.032 375.102L272.916 375.321L272.794 375.334L272.67 375.34L270.555 375.444L270.524 375.446L270.491 375.447C267.972 375.534 264.705 375.784 261.598 375.61C260.12 375.576 258.518 375.467 257.253 375.408C256.305 375.363 255.419 375.246 254.672 375.136L254.672 375.135C253.922 375.038 253.181 374.925 252.484 374.813L252.484 374.813C251.043 374.587 249.551 374.339 248.039 374.03L247.996 374.022L247.955 374.013C246.378 373.658 244.776 373.156 243.543 372.8L243.532 372.796L243.519 372.793C242.145 372.388 240.634 371.938 239.118 371.375L239.056 371.352L238.994 371.327C237.651 370.782 236.126 370.099 234.976 369.613L234.955 369.605L234.934 369.595L232.961 368.738L232.961 368.737C232.216 368.428 231.451 368.07 230.685 367.639L226.902 365.603L226.892 365.598L226.882 365.593C225.629 364.91 224.214 364.126 222.837 363.19C221.633 362.412 220.43 361.61 219.24 360.772L217.483 359.564L217.379 359.493L217.28 359.416C216.669 358.943 216.039 358.425 215.535 358.02L215.514 358.003L215.494 357.987C214.481 357.151 213.268 356.181 212.173 355.256C209.773 353.252 207.576 350.869 205.762 349.038L205.743 349.018C205.155 348.417 204.591 347.786 204.049 347.117L204.05 347.116C203.595 346.572 203.149 346.023 202.716 345.475L202.023 344.612C201.336 343.748 200.668 342.882 200.02 342.028L199.965 341.956L199.913 341.882C198.175 339.387 196.64 336.787 195.251 334.251L195.239 334.23L195.228 334.209C193.858 331.644 194.793 328.467 197.319 327.046L197.318 327.046C198.967 326.118 200.825 326.211 202.257 326.906L202.259 326.905L202.322 326.935L202.321 326.937C202.337 326.945 202.354 326.952 202.37 326.96L202.111 327.461L202.496 327.009C205.077 328.409 207.468 329.911 209.671 331.27C210.916 331.944 212.101 332.646 213.199 333.301C214.352 333.989 215.401 334.619 216.464 335.204L219.916 337.081L219.928 337.087L219.938 337.093C221.165 337.769 221.876 338.212 222.685 338.605L223.04 338.772L223.107 338.801L223.172 338.833C223.753 339.117 224.378 339.435 224.982 339.744L226.668 340.606L226.68 340.611L226.691 340.617C227.187 340.87 227.762 341.165 228.331 341.475L229.92 342.199C231.186 342.744 232.44 343.36 233.499 343.864C234.345 344.266 235.116 344.62 235.864 344.923L236.606 345.209L236.719 345.252L236.831 345.298L240.328 346.788L240.366 346.804L240.405 346.822C241.472 347.301 242.078 347.439 243.689 348.063L243.69 348.063C244.734 348.455 245.997 348.91 247.188 349.384C247.905 349.638 249.601 350.172 250.733 350.603L251.665 350.941C252.548 351.266 253.42 351.602 254.269 351.931C255.488 352.316 256.682 352.734 257.824 353.142C258.579 353.388 259.314 353.688 259.815 353.887C260.26 354.064 260.591 354.189 260.875 354.281L261.145 354.361L261.268 354.395L261.389 354.434C262.2 354.704 263.186 355.016 264.171 355.351L265.15 355.693L265.197 355.709L265.243 355.727C267.434 356.572 269.473 357.002 272.348 357.826L274.011 358.279L275.757 358.601L275.756 358.601C276.996 358.83 278.248 359.038 279.517 359.236L279.516 359.236C281.728 359.576 283.922 359.575 286.689 359.65C288.981 359.61 291.292 359.326 293.889 359.008C295.003 358.815 296.128 358.554 297.402 358.257L297.419 358.253L297.436 358.249C298.633 357.979 299.786 357.7 300.919 357.392C303.334 356.548 305.6 355.74 307.768 354.803C308.877 354.276 309.955 353.753 311.004 353.215L314.274 351.371C318.464 348.835 322.396 345.912 326.223 342.823C330.103 339.667 333.756 336.546 337.08 333.155C343.801 326.3 349.429 318.414 355.007 310.051L355.014 310.041C360.536 301.807 365.566 293.013 370.351 283.798C372.741 279.194 375.061 274.479 377.391 269.663L377.397 269.653C379.697 264.93 382.051 259.888 384.571 254.905L384.57 254.905ZM198.42 335.043C198.432 335.048 198.444 335.053 198.456 335.059C198.445 335.052 198.434 335.046 198.423 335.039L198.42 335.043Z" fill="#11CC41" stroke="#11CC41" stroke-width="9"/>
</svg>
